# xmcd
#
# Track frame offsets:
#	150
#	14905
#	32434
#	48118
#	66261
#	80388
#	97952
#	112854
#	126929
#	142235
#	157664
#	169851
#	185808
#	198942
#	215803
#	228613
#	243451
#	256940
#	268481
#	282752
#	296247
#
# Disc length: 4157 seconds
#
# Revision: 0
# Processed by: cddbd v1.5.2PL0 Copyright (c) Steve Scherf et al.
# Submitted via: EasyCDDAExtractor 8.2.1.1
#
DISCID=3f103b15
DTITLE=Graig Giles - The very Best Of
DYEAR=1900
DGENRE=
TTITLE0=Better Back Up
TTITLE1=Suspicion
TTITLE2=Lonely Old Me
TTITLE3=Starry Sky
TTITLE4=Pick It Up
TTITLE5=No Matter What
TTITLE6=Say It Isn't So
TTITLE7=Take A Ride With Me
TTITLE8=Am I The Easiest To Forget
TTITLE9=Heads I Win
TTITLE10=Getting Too Old For This
TTITLE11=Memories Are Made For This
TTITLE12=Make The World Go Away
TTITLE13=Say You'll Stay Until Tomorrow
TTITLE14=Love Letters In The Sand
TTITLE15=What A Beautiful World
TTITLE16=Pretty Woman
TTITLE17=Sing Sing Sing
TTITLE18=The Last Waltz
TTITLE19=Don't Fence Me In
TTITLE20=Raging Fire
EXTD=
EXTT0=
EXTT1=
EXTT2=
EXTT3=
EXTT4=
EXTT5=
EXTT6=
EXTT7=
EXTT8=
EXTT9=
EXTT10=
EXTT11=
EXTT12=
EXTT13=
EXTT14=
EXTT15=
EXTT16=
EXTT17=
EXTT18=
EXTT19=
EXTT20=
PLAYORDER=
